<svg width="36" height="36" viewBox="0 0 36 36" fill="none" xmlns="http://www.w3.org/2000/svg">
<path d="M4.5 9.375C4.5 8.08207 5.01361 6.84209 5.92785 5.92785C6.84209 5.01361 8.08207 4.5 9.375 4.5H26.625C27.9179 4.5 29.1579 5.01361 30.0721 5.92785C30.9864 6.84209 31.5 8.08207 31.5 9.375V26.625C31.5 27.9179 30.9864 29.1579 30.0721 30.0721C29.1579 30.9864 27.9179 31.5 26.625 31.5H9.375C8.08207 31.5 6.84209 30.9864 5.92785 30.0721C5.01361 29.1579 4.5 27.9179 4.5 26.625V9.375ZM18.75 13.875C18.75 14.496 19.254 15 19.875 15H25.125C25.4234 15 25.7095 14.8815 25.9205 14.6705C26.1315 14.4595 26.25 14.1734 26.25 13.875C26.25 13.5766 26.1315 13.2905 25.9205 13.0795C25.7095 12.8685 25.4234 12.75 25.125 12.75H19.875C19.5766 12.75 19.2905 12.8685 19.0795 13.0795C18.8685 13.2905 18.75 13.5766 18.75 13.875V13.875ZM19.875 21C19.5766 21 19.2905 21.1185 19.0795 21.3295C18.8685 21.5405 18.75 21.8266 18.75 22.125C18.75 22.4234 18.8685 22.7095 19.0795 22.9205C19.2905 23.1315 19.5766 23.25 19.875 23.25H25.125C25.4234 23.25 25.7095 23.1315 25.9205 22.9205C26.1315 22.7095 26.25 22.4234 26.25 22.125C26.25 21.8266 26.1315 21.5405 25.9205 21.3295C25.7095 21.1185 25.4234 21 25.125 21H19.875ZM16.17 13.17C16.2805 13.067 16.3692 12.9428 16.4307 12.8048C16.4922 12.6668 16.5252 12.5178 16.5279 12.3668C16.5306 12.2157 16.5028 12.0657 16.4462 11.9256C16.3896 11.7855 16.3054 11.6583 16.1986 11.5514C16.0917 11.4446 15.9645 11.3604 15.8244 11.3038C15.6843 11.2472 15.5343 11.2194 15.3832 11.2221C15.2322 11.2248 15.0832 11.2578 14.9452 11.3193C14.8072 11.3808 14.683 11.4695 14.58 11.58L12.375 13.785L11.67 13.08C11.4567 12.8813 11.1747 12.7731 10.8832 12.7782C10.5918 12.7834 10.3137 12.9014 10.1076 13.1076C9.90145 13.3137 9.78338 13.5918 9.77824 13.8832C9.7731 14.1747 9.88128 14.4567 10.08 14.67L11.58 16.17C11.7909 16.3807 12.0769 16.499 12.375 16.499C12.6731 16.499 12.9591 16.3807 13.17 16.17L16.17 13.17V13.17ZM16.17 19.83C15.9591 19.6193 15.6731 19.501 15.375 19.501C15.0769 19.501 14.7909 19.6193 14.58 19.83L12.375 22.035L11.67 21.33C11.4567 21.1313 11.1747 21.0231 10.8832 21.0282C10.5918 21.0334 10.3137 21.1514 10.1076 21.3576C9.90145 21.5637 9.78338 21.8418 9.77824 22.1332C9.7731 22.4247 9.88128 22.7067 10.08 22.92L11.58 24.42C11.7909 24.6307 12.0769 24.749 12.375 24.749C12.6731 24.749 12.9591 24.6307 13.17 24.42L16.17 21.42C16.3807 21.2091 16.499 20.9231 16.499 20.625C16.499 20.3269 16.3807 20.0409 16.17 19.83V19.83Z" fill="#699BF7"/>
</svg>
