<svg width="44" height="44" viewBox="0 0 44 44" fill="none" xmlns="http://www.w3.org/2000/svg">
<path fill-rule="evenodd" clip-rule="evenodd" d="M11 22C11 21.6353 11.1449 21.2856 11.4027 21.0277C11.6606 20.7699 12.0103 20.625 12.375 20.625H28.3058L22.4015 14.7235C22.1433 14.4653 21.9983 14.1151 21.9983 13.75C21.9983 13.3849 22.1433 13.0347 22.4015 12.7765C22.6597 12.5183 23.0099 12.3733 23.375 12.3733C23.7401 12.3733 24.0903 12.5183 24.3485 12.7765L32.5985 21.0265C32.7266 21.1542 32.8281 21.306 32.8975 21.473C32.9668 21.6401 33.0025 21.8191 33.0025 22C33.0025 22.1809 32.9668 22.3599 32.8975 22.527C32.8281 22.694 32.7266 22.8458 32.5985 22.9735L24.3485 31.2235C24.0903 31.4817 23.7401 31.6267 23.375 31.6267C23.0099 31.6267 22.6597 31.4817 22.4015 31.2235C22.1433 30.9653 21.9983 30.6151 21.9983 30.25C21.9983 29.8849 22.1433 29.5347 22.4015 29.2765L28.3058 23.375H12.375C12.0103 23.375 11.6606 23.2301 11.4027 22.9723C11.1449 22.7144 11 22.3647 11 22Z" fill="white"/>
</svg>
