<svg width="38" height="38" viewBox="0 0 38 38" fill="none" xmlns="http://www.w3.org/2000/svg">
<path d="M16.625 33.25C16.625 33.25 14.25 33.25 14.25 30.875C14.25 28.5 16.625 21.375 26.125 21.375C35.625 21.375 38 28.5 38 30.875C38 33.25 35.625 33.25 35.625 33.25H16.625ZM26.125 19C28.0147 19 29.8269 18.2493 31.1631 16.9131C32.4993 15.5769 33.25 13.7647 33.25 11.875C33.25 9.98533 32.4993 8.17306 31.1631 6.83686C29.8269 5.50067 28.0147 4.75 26.125 4.75C24.2353 4.75 22.4231 5.50067 21.0869 6.83686C19.7507 8.17306 19 9.98533 19 11.875C19 13.7647 19.7507 15.5769 21.0869 16.9131C22.4231 18.2493 24.2353 19 26.125 19Z" fill="#0FA958"/>
<path fill-rule="evenodd" clip-rule="evenodd" d="M12.388 33.25C12.0359 32.5086 11.8603 31.6957 11.875 30.875C11.875 27.6569 13.49 24.3438 16.473 22.04C14.9841 21.5812 13.4329 21.3569 11.875 21.375C2.375 21.375 0 28.5 0 30.875C0 33.25 2.375 33.25 2.375 33.25H12.388Z" fill="#0FA958"/>
<path d="M10.6875 19C12.2622 19 13.7724 18.3744 14.8859 17.2609C15.9994 16.1474 16.625 14.6372 16.625 13.0625C16.625 11.4878 15.9994 9.97755 14.8859 8.86405C13.7724 7.75056 12.2622 7.125 10.6875 7.125C9.11278 7.125 7.60255 7.75056 6.48905 8.86405C5.37556 9.97755 4.75 11.4878 4.75 13.0625C4.75 14.6372 5.37556 16.1474 6.48905 17.2609C7.60255 18.3744 9.11278 19 10.6875 19Z" fill="#0FA958"/>
</svg>
