<svg width="36" height="36" viewBox="0 0 36 36" fill="none" xmlns="http://www.w3.org/2000/svg">
<path d="M6.75 31.5C6.75 31.5 4.5 31.5 4.5 29.25C4.5 27 6.75 20.25 18 20.25C29.25 20.25 31.5 27 31.5 29.25C31.5 31.5 29.25 31.5 29.25 31.5H6.75ZM18 18C19.7902 18 21.5071 17.2888 22.773 16.023C24.0388 14.7571 24.75 13.0402 24.75 11.25C24.75 9.45979 24.0388 7.7429 22.773 6.47703C21.5071 5.21116 19.7902 4.5 18 4.5C16.2098 4.5 14.4929 5.21116 13.227 6.47703C11.9612 7.7429 11.25 9.45979 11.25 11.25C11.25 13.0402 11.9612 14.7571 13.227 16.023C14.4929 17.2888 16.2098 18 18 18Z" fill="#F24E1E"/>
</svg>
