<svg width="31" height="31" viewBox="0 0 31 31" fill="none" xmlns="http://www.w3.org/2000/svg">
<path d="M15.5 25.1875H30.0312V27.125H15.5V25.1875ZM15.5 18.7291H30.0312V20.6666H15.5V18.7291ZM15.5 12.2709H30.0312V14.2084H15.5V12.2709ZM19.8594 5.8125H30.0312V7.75H19.8594V5.8125Z" fill="#3A71FF"/>
<path d="M18.2852 6.7207L10.1234 1.64784V5.8125H9.76228C7.37358 5.8125 5.14104 6.94806 3.47539 9.00998C1.85879 11.0114 0.96875 13.6603 0.96875 16.4687C0.96875 19.2772 1.85879 21.9261 3.47539 23.9275C5.14104 25.9894 7.37358 27.125 9.76203 27.125H13.0781V25.1875H9.76203C5.98203 25.1875 2.90625 21.2762 2.90625 16.4687C2.90625 11.6613 5.98203 7.75 9.76203 7.75H10.1234V11.9415L18.2852 6.7207ZM12.0609 5.1334L14.6523 6.74438L12.0609 8.40221V5.1334Z" fill="#3A71FF"/>
</svg>
