<svg width="50" height="50" viewBox="0 0 50 50" fill="none" xmlns="http://www.w3.org/2000/svg">
<rect x="0.5" y="0.5" width="49" height="49" rx="9.5" stroke="black" stroke-opacity="0.5"/>
<path d="M30.5925 15.76L33.24 18.4062L30.5925 15.76ZM32.295 13.4287L25.1363 20.5875C24.7664 20.9569 24.5141 21.4275 24.4113 21.94L23.75 25.25L27.06 24.5875C27.5725 24.485 28.0425 24.2337 28.4125 23.8637L35.5713 16.705C35.7864 16.4899 35.957 16.2345 36.0734 15.9534C36.1899 15.6723 36.2498 15.3711 36.2498 15.0669C36.2498 14.7626 36.1899 14.4614 36.0734 14.1803C35.957 13.8993 35.7864 13.6439 35.5713 13.4287C35.3561 13.2136 35.1007 13.043 34.8197 12.9266C34.5386 12.8101 34.2374 12.7502 33.9331 12.7502C33.6289 12.7502 33.3276 12.8101 33.0466 12.9266C32.7655 13.043 32.5101 13.2136 32.295 13.4287V13.4287Z" stroke="black" stroke-width="2" stroke-linecap="round" stroke-linejoin="round"/>
<path d="M33.75 27.75V31.5C33.75 32.163 33.4866 32.7989 33.0178 33.2678C32.5489 33.7366 31.913 34 31.25 34H17.5C16.837 34 16.2011 33.7366 15.7322 33.2678C15.2634 32.7989 15 32.163 15 31.5V17.75C15 17.087 15.2634 16.4511 15.7322 15.9822C16.2011 15.5134 16.837 15.25 17.5 15.25H21.25" stroke="black" stroke-width="2" stroke-linecap="round" stroke-linejoin="round"/>
</svg>
