<svg width="55" height="55" viewBox="0 0 55 55" fill="none" xmlns="http://www.w3.org/2000/svg">
<path d="M9.68229 28.7604L7.61979 26.7552C6.66493 25.8003 5.92931 24.7019 5.41292 23.4598C4.89806 22.2192 4.64062 20.8924 4.64062 19.4792C4.64062 16.5764 5.64361 14.1319 7.64958 12.1458C9.65403 10.1597 12.0885 9.16667 14.9531 9.16667C16.2517 9.16667 17.5312 9.4241 18.7917 9.93896C20.0521 10.4554 21.1788 11.2101 22.1719 12.2031L24.2344 14.2083L9.68229 28.7604ZM27.5 46.5208L12.8906 32.026L32.8281 12.2031C33.8212 11.2101 34.9578 10.4554 36.2381 9.93896C37.5169 9.4241 38.8055 9.16667 40.1042 9.16667C42.9305 9.16667 45.3467 10.1597 47.3527 12.1458C49.3571 14.1319 50.3785 16.5764 50.4167 19.4792C50.4167 20.7778 50.1493 22.0764 49.6146 23.375C49.0799 24.6736 48.3351 25.8003 47.3802 26.7552L27.5 46.5208Z" fill="#699BF7"/>
</svg>
